<svg width="79" height="18" viewBox="0 0 79 18" fill="none" xmlns="http://www.w3.org/2000/svg">
<path d="M0.21875 4.19554L0.670838 1.49814H13.3798L12.9264 4.19554H8.18879L6.07462 16.9687H2.84086L4.95504 4.19554H0.21875ZM19.5296 12.0272L20.6398 5.36676H23.8576L21.9243 16.9687H18.8341L19.1812 14.8615H19.0615C18.7024 15.5428 18.1604 16.1104 17.4965 16.5007C16.8117 16.9128 16.0338 17.1189 15.1629 17.1189C14.3864 17.1189 13.7322 16.9434 13.1977 16.5911C12.6635 16.2315 12.2669 15.7015 12.0728 15.0875C11.8507 14.4374 11.8135 13.6597 11.9597 12.753L13.1977 5.36676H16.4155L15.2839 12.1801C15.1775 12.8647 15.2733 13.4058 15.5698 13.8033C15.8676 14.2021 16.3211 14.4002 16.93 14.4002C17.3183 14.4002 17.6933 14.3125 18.0563 14.1356C18.4233 13.9548 18.7411 13.6876 19.0083 13.3353C19.2743 12.983 19.4484 12.5457 19.5296 12.0272ZM32.6042 5.36676L32.2053 7.78366H25.2086L25.6168 5.36676H32.6042ZM27.6565 2.58694H30.8743L29.0766 13.4031C29.0261 13.6996 29.034 13.9322 29.0992 14.0984C29.1278 14.174 29.1714 14.243 29.2274 14.3013C29.2834 14.3595 29.3506 14.4058 29.425 14.4374C29.5805 14.5039 29.7667 14.5358 29.9834 14.5358C30.135 14.5358 30.2892 14.5225 30.4435 14.4986L30.7998 14.4308L30.9195 16.8237C30.7387 16.8796 30.494 16.9407 30.1882 17.0059C29.885 17.0723 29.5273 17.1122 29.1138 17.1269C28.3293 17.1574 27.6645 17.0537 27.1193 16.8171C26.6057 16.604 26.189 16.2086 25.9492 15.707C25.7125 15.2085 25.662 14.581 25.7976 13.8259L27.6565 2.58694ZM37.9016 17.1947C36.7182 17.1947 35.7382 16.9421 34.963 16.4395C34.1936 15.9399 33.6154 15.195 33.3222 14.3258C33.0098 13.4178 32.9526 12.3635 33.1494 11.1591C33.3408 9.97189 33.7384 8.93095 34.3421 8.04024C34.9258 7.16716 35.7177 6.45307 36.6464 5.96235C37.5785 5.46381 38.6276 5.21521 39.7977 5.21521C40.9758 5.21521 41.9518 5.46913 42.7283 5.9783C43.5048 6.48215 44.0513 7.18675 44.3678 8.09208C44.6856 8.99875 44.7454 10.0543 44.5486 11.2574C44.3532 12.4406 43.9503 13.4776 43.34 14.3696C42.7523 15.2411 41.9615 15.9565 41.0356 16.4542C40.1089 16.9487 39.0651 17.1947 37.9016 17.1947ZM38.2181 14.702C38.7632 14.702 39.2432 14.5491 39.6608 14.242C40.1046 13.906 40.4643 13.4713 40.7112 12.9724C40.9931 12.434 41.1899 11.8238 41.3002 11.1444C41.4119 10.4744 41.4199 9.88149 41.3228 9.36302C41.2271 8.83789 41.0263 8.42577 40.7192 8.12266C40.416 7.82088 40.0012 7.67066 39.4719 7.67066C38.9281 7.67066 38.4454 7.8262 38.0226 8.13861C37.5984 8.44438 37.2487 8.86847 36.9722 9.40689C36.6826 9.9844 36.486 10.604 36.3898 11.2428C36.2834 11.9075 36.2767 12.5018 36.3672 13.0243C36.4576 13.5441 36.657 13.9548 36.9642 14.2566C37.2713 14.5531 37.6889 14.702 38.2181 14.702ZM45.6895 16.9687L47.6242 5.36676H50.7449L50.4045 7.39015H50.5242C50.8566 6.67093 51.3033 6.12719 51.8631 5.75894C52.4269 5.3867 53.0333 5.20059 53.6835 5.20059C53.8444 5.20059 54.0132 5.20989 54.1887 5.22983C54.3709 5.24579 54.5318 5.26972 54.6727 5.30561L54.1887 8.16786C53.9924 8.10641 53.79 8.06629 53.5851 8.04821C53.3423 8.01388 53.0976 7.99611 52.8524 7.99504C52.383 7.99504 51.9482 8.09873 51.5453 8.30479C51.1447 8.50422 50.7957 8.7936 50.5255 9.15031C50.2502 9.52005 50.0661 9.9496 49.9883 10.404L48.9086 16.9687H45.6895ZM54.3948 16.9687L56.3308 5.36676H59.5486L57.6153 16.9687H54.3975H54.3948ZM58.2708 3.85521C57.7921 3.85521 57.3972 3.69568 57.0848 3.37927C56.9367 3.23069 56.8255 3.04958 56.7599 2.85038C56.6944 2.65118 56.6763 2.43941 56.7071 2.23198C56.763 1.77865 56.9784 1.39444 57.3573 1.08336C57.735 0.765623 58.1631 0.607422 58.6418 0.607422C59.1205 0.607422 59.5101 0.766953 59.8119 1.08336C60.1151 1.39577 60.2401 1.77865 60.1895 2.23198C60.139 2.67468 59.9249 3.05622 59.5473 3.37927C59.175 3.69701 58.7495 3.85521 58.2708 3.85521ZM63.4712 17.188C62.7359 17.188 62.0976 17.0591 61.5591 16.8025C61.0453 16.5602 60.6297 16.1498 60.381 15.6392C60.1284 15.1247 60.0659 14.4879 60.1922 13.7275C60.3026 13.0827 60.5113 12.5443 60.8185 12.1109C61.1309 11.6722 61.5112 11.3213 61.9593 11.054C62.4074 10.7882 62.9034 10.5834 63.4486 10.4425C64.0061 10.3001 64.5745 10.204 65.1479 10.1554C65.822 10.0849 66.3712 10.0171 66.7953 9.95062C67.2235 9.88548 67.5426 9.79242 67.754 9.67144C67.8559 9.61302 67.9434 9.53256 68.0101 9.43594C68.0768 9.33933 68.1211 9.22902 68.1396 9.11308V9.06788C68.2154 8.59461 68.1264 8.22636 67.875 7.96446C67.6277 7.69857 67.2328 7.5643 66.689 7.5643C66.1145 7.5643 65.6252 7.6906 65.2237 7.94186C64.8248 8.19445 64.5402 8.51351 64.37 8.9017L61.4381 8.65975C61.7 7.95515 62.0963 7.34495 62.6242 6.83179C63.1587 6.31331 63.8009 5.91449 64.5522 5.63797C65.3021 5.35613 66.1425 5.21521 67.0746 5.21521C67.7195 5.21521 68.3205 5.29099 68.8803 5.44121C69.444 5.59277 69.9307 5.82674 70.3376 6.14448C70.7511 6.46088 71.049 6.86901 71.2285 7.36755C71.4159 7.86076 71.4545 8.45236 71.3428 9.14233L70.0358 16.9687H66.9842L67.2554 15.3601H67.165C66.9152 15.7254 66.6091 16.0489 66.2582 16.3186C65.8855 16.5984 65.4696 16.8153 65.0269 16.9607C64.5642 17.1122 64.0443 17.1867 63.4712 17.1867V17.188ZM64.7623 14.9679C65.2317 14.9679 65.6611 14.8748 66.0547 14.6874C66.4523 14.4959 66.7794 14.2393 67.036 13.9163C67.298 13.5946 67.4642 13.229 67.5346 12.8208L67.7314 11.5898C67.595 11.67 67.447 11.7288 67.2926 11.764C66.8757 11.8764 66.452 11.9621 66.0241 12.0205C65.8246 12.0474 65.6256 12.0775 65.4271 12.1109C65.0705 12.1589 64.7207 12.2481 64.3847 12.3768C64.1016 12.4817 63.8461 12.6494 63.6374 12.8674C63.4459 13.0681 63.3276 13.3194 63.2824 13.6225C63.2119 14.0612 63.3143 14.3949 63.5922 14.6262C63.8741 14.8522 64.2636 14.9665 64.7623 14.9665V14.9679ZM78.3196 1.49814L75.7507 16.9687H72.5329L75.1018 1.49814H78.3196Z" fill="#FEAE00"/>
</svg>
