<svg width="2000" height="402" viewBox="0 0 2000 402" fill="none" xmlns="http://www.w3.org/2000/svg">
<path d="M0 63.5562L200.475 129.272L218.26 66.441H267.368V66.4081H291.241L239.156 380.963H318.771L370.856 66.4081H487.489L498.65 0H147.377L134.109 63.5562H0Z" fill="url(#paint0_linear_4223_698)"/>
<path d="M622.031 280.208L648.061 124.025H723.496L678.165 396.016H605.74L613.885 346.612H611.052C602.671 362.549 590.452 375.357 574.397 385.037C558.342 394.718 540.103 399.558 519.68 399.558C501.5 399.558 486.154 395.426 473.64 387.162C461.245 378.899 452.45 367.153 447.256 351.924C442.062 336.695 441.176 318.456 444.6 297.207L473.64 124.025H549.075L522.514 283.749C520.035 299.804 522.277 312.495 529.243 321.821C536.208 331.147 546.832 335.81 561.116 335.81C570.206 335.81 579.001 333.744 587.501 329.612C596.119 325.362 603.556 319.106 609.813 310.842C616.069 302.578 620.142 292.367 622.031 280.208Z" fill="url(#paint1_linear_4223_698)"/>
<path d="M928.507 124.025L919.122 180.69H755.149L764.711 124.025H928.507ZM812.522 58.8611H887.957L845.812 312.436C844.632 319.401 844.809 324.831 846.344 328.727C847.878 332.504 850.416 335.161 853.958 336.695C857.618 338.23 861.985 338.997 867.062 338.997C870.603 338.997 874.204 338.702 877.863 338.112C881.523 337.404 884.297 336.872 886.186 336.518L889.019 392.652C884.769 393.95 879.044 395.367 871.843 396.902C864.76 398.436 856.378 399.381 846.698 399.735C828.282 400.443 812.699 398.023 799.949 392.475C787.2 386.808 778.051 378.131 772.502 366.444C766.954 354.757 765.773 340.06 768.961 322.352L812.522 58.8611Z" fill="url(#paint2_linear_4223_698)"/>
<path d="M1052.64 401.328C1024.9 401.328 1001.94 395.426 983.756 383.621C965.576 371.698 952.767 355.17 945.33 334.039C938.011 312.79 936.653 288.058 941.257 259.844C945.743 231.984 955.069 207.606 969.235 186.711C983.401 165.816 1001.4 149.584 1023.24 138.015C1045.08 126.327 1069.7 120.484 1097.09 120.484C1124.71 120.484 1147.61 126.446 1165.79 138.369C1183.97 150.174 1196.78 166.701 1204.22 187.95C1211.65 209.2 1213.07 233.931 1208.47 262.146C1203.86 289.888 1194.42 314.206 1180.13 335.102C1165.85 355.997 1147.85 372.288 1126.13 383.975C1104.4 395.544 1079.91 401.328 1052.64 401.328ZM1060.08 342.893C1072.83 342.893 1084.1 339.292 1093.9 332.091C1103.81 324.772 1112.02 314.856 1118.51 302.342C1125.12 289.711 1129.73 275.427 1132.32 259.49C1134.92 243.789 1135.1 229.859 1132.85 217.699C1130.61 205.422 1125.89 195.742 1118.69 188.659C1111.61 181.576 1101.87 178.034 1089.47 178.034C1076.72 178.034 1065.39 181.694 1055.47 189.013C1045.56 196.214 1037.35 206.13 1030.86 218.762C1024.37 231.393 1019.82 245.737 1017.22 261.792C1014.74 277.374 1014.57 291.304 1016.69 303.582C1018.82 315.741 1023.48 325.362 1030.68 332.445C1037.88 339.41 1047.68 342.893 1060.08 342.893Z" fill="url(#paint3_linear_4223_698)"/>
<path d="M1235.21 396.016L1280.54 124.025H1353.67L1345.7 171.482H1348.53C1356.33 154.601 1366.77 141.851 1379.88 133.234C1393.1 124.498 1407.32 120.13 1422.55 120.13C1426.33 120.13 1430.29 120.366 1434.42 120.838C1438.67 121.192 1442.44 121.783 1445.75 122.609L1434.42 189.721C1431.11 188.541 1426.39 187.596 1420.25 186.888C1414.23 186.062 1408.5 185.648 1403.07 185.648C1392.1 185.648 1381.88 188.068 1372.44 192.909C1363 197.631 1355.03 204.241 1348.53 212.741C1342.16 221.241 1337.97 231.039 1335.96 242.136L1310.64 396.016H1235.21Z" fill="url(#paint4_linear_4223_698)"/>
<path d="M1439.24 396.016L1484.57 124.025H1560.01L1514.68 396.016H1439.24ZM1530.08 88.61C1518.87 88.61 1509.6 84.8914 1502.28 77.4542C1495.08 69.8989 1492.13 60.9269 1493.43 50.5384C1494.73 39.9138 1499.8 30.9419 1508.66 23.6227C1517.51 16.1854 1527.55 12.4668 1538.76 12.4668C1549.97 12.4668 1559.12 16.1854 1566.21 23.6227C1573.29 30.9419 1576.24 39.9138 1575.06 50.5384C1573.88 60.9269 1568.86 69.8989 1560.01 77.4542C1551.27 84.8914 1541.3 88.61 1530.08 88.61Z" fill="url(#paint5_linear_4223_698)"/>
<path d="M1651.96 401.151C1634.72 401.151 1619.79 398.141 1607.16 392.12C1594.64 385.982 1585.43 376.892 1579.53 364.851C1573.63 352.809 1572.15 337.876 1575.11 320.05C1577.7 304.939 1582.6 292.308 1589.8 282.155C1597.12 271.885 1606.03 263.621 1616.54 257.365C1627.05 251.108 1638.68 246.327 1651.43 243.021C1664.29 239.716 1677.57 237.473 1691.27 236.292C1707.09 234.64 1719.95 233.046 1729.87 231.511C1739.9 229.977 1747.4 227.793 1752.36 224.96C1757.32 222.008 1760.33 217.64 1761.39 211.856V210.793C1763.16 199.697 1761.1 191.079 1755.19 184.94C1749.41 178.683 1740.14 175.555 1727.39 175.555C1713.93 175.555 1702.48 178.506 1693.04 184.409C1683.71 190.311 1677.04 197.808 1673.03 206.898L1604.32 201.231C1610.46 184.704 1619.73 170.42 1632.12 158.378C1644.64 146.219 1659.69 136.893 1677.28 130.4C1694.87 123.789 1714.58 120.484 1736.42 120.484C1751.53 120.484 1765.64 122.255 1778.74 125.796C1791.97 129.338 1803.36 134.827 1812.92 142.264C1822.6 149.702 1829.57 159.264 1833.81 170.951C1838.18 182.52 1839.07 196.391 1836.47 212.564L1805.84 396.016H1734.3L1740.67 358.299H1738.55C1732.76 366.798 1725.68 374.295 1717.3 380.788C1708.92 387.162 1699.3 392.179 1688.43 395.839C1677.57 399.381 1665.41 401.151 1651.96 401.151ZM1682.24 349.091C1693.22 349.091 1703.31 346.907 1712.52 342.539C1721.84 338.053 1729.52 332.032 1735.54 324.477C1741.68 316.922 1745.57 308.363 1747.22 298.801L1751.83 269.937C1749.47 271.472 1746.04 272.829 1741.56 274.01C1737.19 275.19 1732.41 276.312 1727.21 277.374C1722.14 278.319 1717 279.204 1711.81 280.031C1706.61 280.739 1701.95 281.447 1697.82 282.155C1688.73 283.454 1680.58 285.52 1673.38 288.353C1666.18 291.186 1660.34 295.023 1655.85 299.863C1651.37 304.585 1648.59 310.488 1647.53 317.571C1645.88 327.841 1648.3 335.692 1654.79 341.122C1661.4 346.435 1670.55 349.091 1682.24 349.091Z" fill="url(#paint6_linear_4223_698)"/>
<path d="M2000 33.3619L1939.8 396.016H1864.36L1924.57 33.3619H2000Z" fill="url(#paint7_linear_4223_698)"/>
<defs>
<linearGradient id="paint0_linear_4223_698" x1="249.325" y1="0" x2="249.325" y2="380.963" gradientUnits="userSpaceOnUse">
<stop stop-color="#14F195"/>
<stop offset="1" stop-color="#9945FF"/>
</linearGradient>
<linearGradient id="paint1_linear_4223_698" x1="1221.28" y1="12.4668" x2="1221.28" y2="401.328" gradientUnits="userSpaceOnUse">
<stop stop-color="#14F195"/>
<stop offset="1" stop-color="#9945FF"/>
</linearGradient>
<linearGradient id="paint2_linear_4223_698" x1="1221.28" y1="12.4668" x2="1221.28" y2="401.328" gradientUnits="userSpaceOnUse">
<stop stop-color="#14F195"/>
<stop offset="1" stop-color="#9945FF"/>
</linearGradient>
<linearGradient id="paint3_linear_4223_698" x1="1221.28" y1="12.4668" x2="1221.28" y2="401.328" gradientUnits="userSpaceOnUse">
<stop stop-color="#14F195"/>
<stop offset="1" stop-color="#9945FF"/>
</linearGradient>
<linearGradient id="paint4_linear_4223_698" x1="1221.28" y1="12.4668" x2="1221.28" y2="401.328" gradientUnits="userSpaceOnUse">
<stop stop-color="#14F195"/>
<stop offset="1" stop-color="#9945FF"/>
</linearGradient>
<linearGradient id="paint5_linear_4223_698" x1="1221.28" y1="12.4668" x2="1221.28" y2="401.328" gradientUnits="userSpaceOnUse">
<stop stop-color="#14F195"/>
<stop offset="1" stop-color="#9945FF"/>
</linearGradient>
<linearGradient id="paint6_linear_4223_698" x1="1221.28" y1="12.4668" x2="1221.28" y2="401.328" gradientUnits="userSpaceOnUse">
<stop stop-color="#14F195"/>
<stop offset="1" stop-color="#9945FF"/>
</linearGradient>
<linearGradient id="paint7_linear_4223_698" x1="1221.28" y1="12.4668" x2="1221.28" y2="401.328" gradientUnits="userSpaceOnUse">
<stop stop-color="#14F195"/>
<stop offset="1" stop-color="#9945FF"/>
</linearGradient>
</defs>
</svg>
